<?xml version="1.0" encoding="UTF-8"?>
<svg version="1.1" xmlns="http://www.w3.org/2000/svg" width="500" height="500">
<path d="M0 0 C2.46440186 9.67325063 2.60768772 20.00537484 3.11328125 29.9453125 C3.1552746 30.74018192 3.19726795 31.53505135 3.24053383 32.35400772 C4.16167721 50.07058907 4.27193111 67.76454513 4.19561768 85.50079346 C4.18474808 88.6798649 4.18519461 91.85889423 4.18562889 95.03798103 C4.18326519 163.7417841 4.18326519 163.7417841 1.47802734 173.97436523 C0.28059743 179.32308607 1.30497322 182.20469168 4.1640625 186.86328125 C5.62974378 189.0329062 7.11346862 191.17596797 8.625 193.3125 C9.42015836 194.47468289 10.21277253 195.63861029 11.00292969 196.80419922 C12.58891 199.13900683 14.18556391 201.46583858 15.79199219 203.78662109 C18.69615578 208.01313604 21.47964857 212.31018572 24.25 216.625 C30.15248474 225.73122176 36.10836934 234.80251094 42.0625 243.875 C42.75804993 244.93500214 42.75804993 244.93500214 43.46765137 246.01641846 C44.80234436 248.05021096 46.13741252 250.08375654 47.47265625 252.1171875 C47.87007523 252.72266418 48.2674942 253.32814087 48.67695618 253.95196533 C50.4774787 256.69276845 52.28469945 259.38066001 54.24975586 262.00805664 C56.31035329 265.5305314 56.51535996 267.6976891 56.53125 271.75390625 C56.53640625 273.02041016 56.5415625 274.28691406 56.546875 275.59179688 C56.53140625 276.90212891 56.5159375 278.21246094 56.5 279.5625 C56.51546875 280.87669922 56.5309375 282.19089844 56.546875 283.54492188 C56.54171875 284.81013672 56.5365625 286.07535156 56.53125 287.37890625 C56.52673828 288.5294751 56.52222656 289.68004395 56.51757812 290.86547852 C55.8845296 294.69930402 54.81530625 296.34602503 52 299 C48.71213201 299.87980465 45.62720258 300.12233468 42.23485374 300.11022377 C41.29870055 300.10934812 40.36254735 300.10847247 39.39802587 300.10757029 C38.37741555 300.10144862 37.35680524 300.09532695 36.30526733 300.08901978 C35.21363993 300.08649621 34.12201253 300.08397265 32.99730551 300.08137262 C29.32808672 300.07163025 25.65893794 300.05459409 21.98974609 300.03759766 C19.35836927 300.02908843 16.72699099 300.02101731 14.09561157 300.01335144 C7.66151551 299.99375791 1.22745178 299.96867802 -5.20661731 299.9417484 C-12.78678058 299.91020805 -20.3669595 299.88391906 -27.94714288 299.85774951 C-41.58538508 299.81046615 -55.22360339 299.75813408 -68.86181641 299.703125 C-81.88328844 299.65060568 -94.90476692 299.60191806 -107.92626953 299.55761719 C-230.53492604 299.13950754 -230.53492604 299.13950754 -285.41001081 298.55376387 C-288.21847822 298.52401957 -291.02695574 298.49547692 -293.83543777 298.46715164 C-355.77034792 297.83210385 -355.77034792 297.83210385 -363.7265625 293.5234375 C-367.04895184 289.8356995 -367.26067832 286.26206146 -367.8125 281.4375 C-367.92505127 280.53797607 -368.03760254 279.63845215 -368.15356445 278.71166992 C-368.36569345 276.93591135 -368.56523956 275.15859555 -368.75097656 273.37988281 C-368.95454531 271.43440421 -369.20154815 269.49351302 -369.4609375 267.5546875 C-369.78081424 263.68307596 -369.7419851 261.14183263 -367.59375 257.8359375 C-366.26607422 256.33958161 -364.88293431 254.89140343 -363.4609375 253.484375 C-360.64303762 250.63963798 -358.24731178 247.60869388 -355.8125 244.4375 C-352.35619963 239.97918074 -348.84592978 235.57722291 -345.25439453 231.22705078 C-337.7419505 222.11171189 -330.81753152 212.64190745 -324 203 C-322.46040928 200.83454372 -320.92019031 198.66955529 -319.37744141 196.50634766 C-318.37518495 195.08455714 -317.38650622 193.65309845 -316.41162109 192.21240234 C-314.04514653 188.733788 -311.69824603 185.60301923 -308.69921875 182.64453125 C-304.3205702 178.05212427 -301.14990447 173.42245536 -300.86463928 166.90959167 C-301.07531997 163.78641102 -301.37319478 160.6889573 -301.7519455 157.58177567 C-302.22660163 153.62808064 -302.5920132 149.66368965 -302.96655273 145.69946289 C-303.05243967 144.80503353 -303.13832661 143.91060417 -303.22681618 142.98907089 C-304.37882429 130.55519841 -304.93595852 118.08242663 -305.54146314 105.61233211 C-305.64067313 103.56932143 -305.74078989 101.52635687 -305.84110832 99.48340034 C-306.2162763 91.82890604 -306.58253411 84.17401077 -306.94490999 76.51890141 C-307.21750716 70.77500653 -307.49965047 65.03160903 -307.7839396 59.28828251 C-308.06132966 53.67924159 -308.33370617 48.06997343 -308.60190177 42.46048534 C-308.76068216 39.13962588 -308.92167184 35.81890335 -309.08625031 32.49832535 C-309.26717078 28.83004036 -309.4398626 25.16145837 -309.61035156 21.49267578 C-309.66533813 20.41131348 -309.72032471 19.32995117 -309.77697754 18.21582031 C-310.33493406 5.7596858 -310.33493406 5.7596858 -307.625 2.1875 C-304.67677262 0.03302615 -301.89333918 -0.14798036 -298.36720276 -0.25865173 C-297.41289903 -0.29078892 -296.45859529 -0.3229261 -295.47537327 -0.35603714 C-294.42719394 -0.3867065 -293.37901461 -0.41737587 -292.29907227 -0.44897461 C-291.19021888 -0.48495632 -290.08136549 -0.52093803 -288.93891048 -0.5580101 C-285.23153358 -0.67715154 -281.523988 -0.78977138 -277.81640625 -0.90234375 C-275.20274755 -0.98489984 -272.58910026 -1.06781786 -269.97546387 -1.15107727 C-262.95889646 -1.37364283 -255.94213119 -1.58944893 -248.92531204 -1.8039093 C-244.56775571 -1.93715032 -240.21024976 -2.07198993 -235.85275269 -2.20715332 C-220.07729292 -2.69619316 -204.30163215 -3.17816713 -188.52572536 -3.65256691 C-180.55090814 -3.89242705 -172.57619413 -4.13539721 -164.6015625 -4.38134766 C-9.72516283 -9.14262396 -9.72516283 -9.14262396 0 0 Z M-206.87544727 8.71531773 C-216.02880298 9.00290531 -225.18259214 9.27408168 -234.33660126 9.5399437 C-240.27763305 9.71282051 -246.21857091 9.88890518 -252.15950775 10.06501007 C-254.15216667 10.12395481 -256.14483934 10.18243448 -258.13751221 10.24090576 C-271.11008752 10.62500422 -284.05355081 11.0779269 -297 12 C-297.14129873 26.4626108 -296.72044916 40.844986 -296.01171875 55.2890625 C-295.90658316 57.4883012 -295.80167405 59.68755074 -295.69697571 61.8868103 C-295.47741937 66.47385759 -295.25423877 71.06071074 -295.02856445 75.64746094 C-294.80126906 80.2738524 -294.57924893 84.90044396 -294.36254883 89.52734375 C-293.11891963 116.07694176 -291.68801843 142.55263373 -289 169 C-283.41593467 170.86135511 -277.35073981 170.45005028 -271.5 170.625 C-270.77558716 170.64779022 -270.05117432 170.67058044 -269.30480957 170.69406128 C-256.38962614 171.08387437 -243.5286858 170.90097401 -230.61914062 170.40673828 C-213.15461061 169.7413353 -195.80279157 169.89982204 -178.35602951 170.92585945 C-173.23347279 171.22534842 -168.10954241 171.49998553 -162.98583984 171.77905273 C-161.91153276 171.83801948 -160.83722569 171.89698622 -159.73036385 171.95773983 C-123.49262063 173.94299137 -87.3162558 175.50656948 -51.01826477 175.44204712 C-48.37817915 175.43750547 -45.73811158 175.43686082 -43.09802246 175.43652344 C-38.99419101 175.4335547 -34.89066033 175.41686536 -30.78693771 175.3869648 C-29.29767834 175.37652252 -27.80839824 175.36866286 -26.31911087 175.36359978 C-24.3030021 175.35469585 -22.28697497 175.33095294 -20.27099609 175.30639648 C-19.14857513 175.29575668 -18.02615417 175.28511688 -16.86972046 175.27415466 C-13.99851105 174.99985776 -12.30556379 174.73023715 -10 173 C-9.30978337 171.11768019 -9.30978337 171.11768019 -9.28564453 168.84887695 C-9.20253021 167.49604111 -9.20253021 167.49604111 -9.11773682 166.11587524 C-9.07888367 165.08763641 -9.04003052 164.05939758 -9 163 C-8.94777283 161.86162689 -8.89554565 160.72325378 -8.84173584 159.55038452 C-8.67553823 155.50673437 -8.54758463 151.46324654 -8.4296875 147.41796875 C-8.38337738 145.89561322 -8.33702007 144.37325913 -8.2906189 142.85090637 C-8.14411901 137.96331792 -8.00839287 133.07546158 -7.875 128.1875 C-7.85207382 127.35599426 -7.82914764 126.52448853 -7.80552673 125.66778564 C-7.08060043 99.22704426 -6.72623148 72.86560305 -7.8939209 46.42962646 C-8.00365169 43.91636193 -8.10447766 41.40284425 -8.20410156 38.88916016 C-8.36973443 34.78886669 -8.55556516 30.6900379 -8.7611084 26.59155273 C-8.83599458 25.09302638 -8.90746459 23.5943247 -8.97521973 22.09545898 C-9.06988808 20.07979755 -9.18663504 18.06520839 -9.3046875 16.05078125 C-9.36640137 14.92325439 -9.42811523 13.79572754 -9.49169922 12.6340332 C-9.65943848 11.76480225 -9.82717773 10.89557129 -10 10 C-13.80201451 7.46532366 -17.2439063 7.29571787 -21.6796875 6.89453125 C-22.60079315 6.81064651 -23.5218988 6.72676178 -24.47091675 6.64033508 C-37.55663808 5.57631048 -50.68182238 5.65173451 -63.80118561 5.68254852 C-66.16415299 5.68758343 -68.5271034 5.68904952 -70.89007568 5.69000244 C-116.23499188 5.7284366 -161.55761679 7.28756681 -206.87544727 8.71531773 Z M-302.16040039 190.92651367 C-303.04930499 192.52271871 -303.92059369 194.12886922 -304.7734375 195.74462891 C-306.5134732 198.94416111 -308.58927071 201.82546154 -310.75 204.75 C-311.14098877 205.29664307 -311.53197754 205.84328613 -311.93481445 206.40649414 C-322.58770111 221.29287107 -333.88131804 235.816162 -345.44921875 250.00390625 C-346.18785156 250.91011719 -346.92648437 251.81632812 -347.6875 252.75 C-348.65236328 253.91789062 -348.65236328 253.91789062 -349.63671875 255.109375 C-351.1949595 256.88189374 -351.1949595 256.88189374 -351 259 C-332.28900488 259.83734167 -313.62262506 260.13701206 -294.89453125 260.09765625 C-292.22026995 260.09578438 -289.54601136 260.09431472 -286.87174988 260.09336853 C-280.63588847 260.09030655 -274.40004538 260.08216534 -268.1641919 260.07201904 C-261.04399403 260.06069468 -253.92379511 260.05530709 -246.80359042 260.05032361 C-232.2023844 260.03997601 -217.60119253 260.02248034 -203 260 C-201.67997444 257.44113496 -200.36886218 254.87832932 -199.0625 252.3125 C-198.68931641 251.59126953 -198.31613281 250.87003906 -197.93164062 250.12695312 C-196.06034761 246.43494258 -194.51730444 243.16306904 -194 239 C-194.79337769 238.99191315 -195.58675537 238.98382629 -196.4041748 238.97549438 C-204.0467176 238.89609187 -211.68910761 238.80842822 -219.33145905 238.71247292 C-223.25625928 238.6634591 -227.18104388 238.61716168 -231.10595703 238.578125 C-258.47014637 238.30252075 -285.83067099 237.54710684 -313 234 C-311.67220835 230.39484935 -310.06706651 227.34716632 -307.9453125 224.1484375 C-307.32914063 223.21257812 -306.71296875 222.27671875 -306.078125 221.3125 C-305.43359375 220.343125 -304.7890625 219.37375 -304.125 218.375 C-302.87592048 216.48809264 -301.6285901 214.60002649 -300.3828125 212.7109375 C-299.691875 211.69757324 -299.0009375 210.68420898 -298.2890625 209.64013672 C-296.46179404 206.86204661 -294.97024309 203.99753249 -293.4921875 201.02001953 C-287.00055938 188.48533676 -287.00055938 188.48533676 -282.05743408 186.03839111 C-277.2692929 184.84875826 -272.50608122 185.31233003 -267.64404297 185.82223511 C-264.62383251 186.13819921 -261.61369296 186.33536964 -258.58203125 186.50805664 C-255.03185678 186.71409182 -251.4842092 186.93124541 -247.93688965 187.1822052 C-236.0124059 188.01967917 -224.08879866 188.40729994 -212.140625 188.73828125 C-211.12815327 188.7666186 -210.11568153 188.79495594 -209.07252884 188.82415199 C-204.90407855 188.94057925 -200.73560731 189.05618245 -196.56708717 189.17008305 C-184.92111541 189.48978345 -173.27692975 189.86150076 -161.6328125 190.2421875 C-160.10994692 190.2917991 -160.10994692 190.2917991 -158.55631638 190.34241295 C-142.43917635 190.86904583 -126.32698222 191.46868725 -110.21682739 192.17984009 C-80.1593141 193.50183091 -50.07489356 194.19288229 -20 195 C-19.62633301 196.0310083 -19.25266602 197.0620166 -18.86767578 198.12426758 C-15.91338057 206.19169111 -12.79896484 214.03143611 -8.875 221.6875 C-8.45863281 222.52732422 -8.04226563 223.36714844 -7.61328125 224.23242188 C-5.41679972 228.58062904 -3.06326425 232.19562344 0 236 C0 236.99 0 237.98 0 239 C-13.45682708 239.79158796 -26.84962342 240.13861225 -40.328125 240.09765625 C-42.18284059 240.09578382 -44.03755668 240.09436383 -45.89227295 240.09336853 C-50.69902998 240.0896082 -55.50575525 240.07983601 -60.3125 240.06866455 C-65.24739147 240.05830833 -70.18228823 240.05384094 -75.1171875 240.04882812 C-84.74480538 240.03820568 -94.37240002 240.02121062 -104 240 C-103.36026485 243.14710574 -102.71219502 246.29243659 -102.0625 249.4375 C-101.88009766 250.33533203 -101.69769531 251.23316406 -101.50976562 252.15820312 C-101.33251953 253.01220703 -101.15527344 253.86621094 -100.97265625 254.74609375 C-100.81031494 255.53685303 -100.64797363 256.3276123 -100.48071289 257.14233398 C-100.16709107 259.00204668 -100.16709107 259.00204668 -99 260 C-96.92918976 260.10338446 -94.85463843 260.13085858 -92.78125 260.1328125 C-91.7486203 260.13485939 -91.7486203 260.13485939 -90.69512939 260.13694763 C-88.29671072 260.13904512 -85.89840724 260.13244325 -83.5 260.125 C-82.23694031 260.12317215 -82.23694031 260.12317215 -80.94836426 260.12130737 C-60.13315187 260.08723641 -39.31831758 259.8339914 -18.50466919 259.59383392 C-15.75890112 259.56260125 -13.01312091 259.53275921 -10.26733398 259.50323486 C-5.86085092 259.4554696 -1.45444555 259.40301787 2.95194244 259.34718513 C4.59246408 259.32699731 6.23300335 259.30818529 7.87355804 259.29089165 C17.2896143 259.19015425 26.61603753 258.87493201 36 258 C34.37885322 253.74578328 32.25723408 250.17524913 29.6875 246.4375 C28.78012421 245.09711558 27.87393488 243.75592745 26.96875 242.4140625 C26.24558594 241.34333496 26.24558594 241.34333496 25.5078125 240.25097656 C22.86005116 236.29819813 20.27509389 232.30482108 17.6875 228.3125 C17.14416016 227.47517334 16.60082031 226.63784668 16.04101562 225.77514648 C14.3599818 223.18388112 12.67992649 220.59198336 11 218 C8.73024926 214.49929637 6.45916314 210.99946285 4.1875 207.5 C3.43376099 206.33658081 3.43376099 206.33658081 2.66479492 205.1496582 C1.68904683 203.64648731 0.69980759 202.1519624 -0.30459595 200.66778564 C-2 198 -2 198 -3.54273987 194.93699646 C-7.00586665 188.50421042 -7.00586665 188.50421042 -13.10780334 184.98062134 C-17.00670908 184.68912351 -20.80121148 184.78441926 -24.6953125 185.00390625 C-26.19812339 185.04101102 -27.70110172 185.07178021 -29.2041626 185.0967865 C-32.46147461 185.16000895 -35.71530002 185.25703788 -38.97088623 185.38037109 C-47.90957887 185.71221894 -56.85319481 185.80293752 -65.796875 185.91015625 C-66.74732571 185.92336033 -67.69777641 185.93656441 -68.67702866 185.95016861 C-93.95381329 186.28245331 -119.14471989 184.89247784 -144.375 183.5 C-145.4738578 183.43941029 -146.57271561 183.37882057 -147.70487213 183.31639481 C-149.89306317 183.19562199 -152.08124955 183.07476467 -154.26943111 182.95382023 C-159.4998194 182.66502705 -164.7303197 182.37835523 -169.9609375 182.09375 C-170.9549375 182.03942244 -171.94893749 181.98509487 -172.9730587 181.92912102 C-187.99681979 181.11594048 -202.95111526 180.61440472 -218 181 C-219.09828125 181.02574097 -219.09828125 181.02574097 -220.21875 181.05200195 C-224.33574624 181.15512235 -228.44839767 181.31690274 -232.5625 181.5 C-241.6892877 181.8528033 -250.80366734 182.10147389 -259.9375 182.125 C-261.45875488 182.1415564 -261.45875488 182.1415564 -263.01074219 182.15844727 C-268.10744673 182.17447205 -272.97915412 181.92840212 -278.0234375 181.17578125 C-290.08789579 179.51971768 -295.67447306 180.05525967 -302.16040039 190.92651367 Z M-282 192 C-283.65 195.3 -285.3 198.6 -287 202 C-281.94257787 202.56353987 -281.94257787 202.56353987 -277 202 C-274.58054872 199.6709458 -273.19220191 197.12482394 -272 194 C-272 193.34 -272 192.68 -272 192 C-275.3 192 -278.6 192 -282 192 Z M-268.625 196.375 C-270.49525266 199.501937 -270.49525266 199.501937 -271 203 C-267.37 203 -263.74 203 -260 203 C-259.175 201.55625 -258.35 200.1125 -257.5 198.625 C-257.0359375 197.81289063 -256.571875 197.00078125 -256.09375 196.1640625 C-254.84964141 194.10663126 -254.84964141 194.10663126 -255 192 C-261.21848874 191.00455022 -264.93565076 190.83210751 -268.625 196.375 Z M-249 193 C-250.65 196.3 -252.3 199.6 -254 203 C-251.03 203 -248.06 203 -245 203 C-244.34 201.72125 -243.68 200.4425 -243 199.125 C-242.62875 198.40570313 -242.2575 197.68640625 -241.875 196.9453125 C-240.86326254 195.05151023 -240.86326254 195.05151023 -241 193 C-243.64 193 -246.28 193 -249 193 Z M-234 193 C-234.66 194.093125 -235.32 195.18625 -236 196.3125 C-236.37125 196.92738281 -236.7425 197.54226563 -237.125 198.17578125 C-238.21623999 200.11361926 -238.21623999 200.11361926 -238 203 C-235.03 203 -232.06 203 -229 203 C-228.01 199.7 -227.02 196.4 -226 193 C-228.64 193 -231.28 193 -234 193 Z M-220 194 C-222.29045014 198.81209901 -222.29045014 198.81209901 -223 204 C-217.555 203.505 -217.555 203.505 -212 203 C-211.01 200.03 -210.02 197.06 -209 194 C-212.63 194 -216.26 194 -220 194 Z M-203 194 C-205.35910353 198.2637281 -205.35910353 198.2637281 -206 203 C-203.03 203 -200.06 203 -197 203 C-195.50178941 199.62902617 -195 197.79557881 -195 194 C-197.64 194 -200.28 194 -203 194 Z M-189 195 C-189.66 197.64 -190.32 200.28 -191 203 C-187.04 203 -183.08 203 -179 203 C-178.34 200.36 -177.68 197.72 -177 195 C-180.96 195 -184.92 195 -189 195 Z M-171 195 C-172.25664978 197.90600261 -173 199.79604584 -173 203 C-169.7 203 -166.4 203 -163 203 C-161.74335022 200.09399739 -161 198.20395416 -161 195 C-164.3 195 -167.6 195 -171 195 Z M-155 196 C-157.18569534 200.56671088 -157.18569534 200.56671088 -157 204 C-153.04 204 -149.08 204 -145 204 C-144.67 201.36 -144.34 198.72 -144 196 C-147.63 196 -151.26 196 -155 196 Z M-138 196 C-139.4472136 198.52174919 -139.4472136 198.52174919 -139 204 C-134.71 204 -130.42 204 -126 204 C-125.67 201.69 -125.34 199.38 -125 197 C-129.40914783 195.89771304 -133.48382401 195.92345464 -138 196 Z M-120 198 C-120.04080783 199.99958364 -120.04254356 202.00045254 -120 204 C-118.35425434 204.02688151 -116.70838587 204.04634123 -115.0625 204.0625 C-113.68771484 204.07990234 -113.68771484 204.07990234 -112.28515625 204.09765625 C-110.03406673 204.25949049 -110.03406673 204.25949049 -109 203 C-108.95919217 201.00041636 -108.95745644 198.99954746 -109 197 C-110.64574566 196.97311849 -112.29161413 196.95365877 -113.9375 196.9375 C-115.31228516 196.92009766 -115.31228516 196.92009766 -116.71484375 196.90234375 C-118.96593327 196.74050951 -118.96593327 196.74050951 -120 198 Z M-103 198 C-103.33 199.98 -103.66 201.96 -104 204 C-101.68756208 204.02685412 -99.3750373 204.04632841 -97.0625 204.0625 C-95.13083984 204.07990234 -95.13083984 204.07990234 -93.16015625 204.09765625 C-90.13701597 204.36532549 -90.13701597 204.36532549 -89 203 C-89 201.35 -89 199.7 -89 198 C-93.62 198 -98.24 198 -103 198 Z M-84 198 C-84 199.65 -84 201.3 -84 203 C-80.7 203 -77.4 203 -74 203 C-74 201.68 -74 200.36 -74 199 C-77.3 198.67 -80.6 198.34 -84 198 Z M-68 199 C-68 200.32 -68 201.64 -68 203 C-64.7 203 -61.4 203 -58 203 C-58 201.68 -58 200.36 -58 199 C-61.3 199 -64.6 199 -68 199 Z M-53 199 C-53 200.65 -53 202.3 -53 204 C-49.04 204 -45.08 204 -41 204 C-41.33 202.35 -41.66 200.7 -42 199 C-45.63 199 -49.26 199 -53 199 Z M-36 199 C-36 200.65 -36 202.3 -36 204 C-31.71 204 -27.42 204 -23 204 C-23.33 202.35 -23.66 200.7 -24 199 C-27.96 199 -31.92 199 -36 199 Z M-291 207 C-291.66 208.11375 -292.32 209.2275 -293 210.375 C-293.37125 211.00148438 -293.7425 211.62796875 -294.125 212.2734375 C-295.15068348 213.97472667 -295.15068348 213.97472667 -295 216 C-291.92576817 216.35471906 -289.05991472 216.52666346 -286 216 C-282.82587952 212.49374377 -282.82587952 212.49374377 -282 208 C-284.97 207.67 -287.94 207.34 -291 207 Z M-276.84375 209.421875 C-278.62379304 211.92635416 -280 213.87560556 -280 217 C-276.04 217 -272.08 217 -268 217 C-266.68 214.36 -265.36 211.72 -264 209 C-270.71936428 207.3259557 -270.71936428 207.3259557 -276.84375 209.421875 Z M-258 209 C-258.66 210.11375 -259.32 211.2275 -260 212.375 C-260.37125 213.00148438 -260.7425 213.62796875 -261.125 214.2734375 C-262.15068348 215.97472667 -262.15068348 215.97472667 -262 218 C-258.37 218 -254.74 218 -251 218 C-249.68 215.03 -248.36 212.06 -247 209 C-250.63 209 -254.26 209 -258 209 Z M-242 209 C-242.99 211.97 -243.98 214.94 -245 218 C-241.37 218 -237.74 218 -234 218 C-231.75240622 213.27854301 -231.75240622 213.27854301 -232 209 C-235.3 209 -238.6 209 -242 209 Z M-225 209 C-227.35910353 213.2637281 -227.35910353 213.2637281 -228 218 C-224.7 218 -221.4 218 -218 218 C-217.01 215.03 -216.02 212.06 -215 209 C-218.3 209 -221.6 209 -225 209 Z M-209 209 C-209.99 211.97 -210.98 214.94 -212 218 C-208.7 218 -205.4 218 -202 218 C-201.01 215.03 -200.02 212.06 -199 209 C-202.3 209 -205.6 209 -209 209 Z M-193 209 C-193.99 211.97 -194.98 214.94 -196 218 C-192.04 218 -188.08 218 -184 218 C-183.01 215.03 -182.02 212.06 -181 209 C-184.96 209 -188.92 209 -193 209 Z M-175 209 C-175.99 211.97 -176.98 214.94 -178 218 C-174.04 218 -170.08 218 -166 218 C-165.34 215.03 -164.68 212.06 -164 209 C-167.63 209 -171.26 209 -175 209 Z M-158 209 C-160.372678 213 -160.372678 213 -160 218 C-155.71 218 -151.42 218 -147 218 C-146.67 215.03 -146.34 212.06 -146 209 C-149.96 209 -153.92 209 -158 209 Z M-84 209 C-84 211.64 -84 214.28 -84 217 C-80.7 217 -77.4 217 -74 217 C-74 214.36 -74 211.72 -74 209 C-77.3 209 -80.6 209 -84 209 Z M-68 209 C-68 211.64 -68 214.28 -68 217 C-64.7 217 -61.4 217 -58 217 C-58 214.36 -58 211.72 -58 209 C-61.3 209 -64.6 209 -68 209 Z M-52 209 C-53.43088528 211.86177057 -52.59991697 213.93375773 -52 217 C-48.04 217.33 -44.08 217.66 -40 218 C-40.33 215.03 -40.66 212.06 -41 209 C-44.63 209 -48.26 209 -52 209 Z M-141 211 C-141 212.98 -141 214.96 -141 217 C-136.71 217 -132.42 217 -128 217 C-127.67 214.69 -127.34 212.38 -127 210 C-129.14576637 209.97314062 -131.29162645 209.95366912 -133.4375 209.9375 C-135.22994141 209.92009766 -135.22994141 209.92009766 -137.05859375 209.90234375 C-139.88873341 209.66098208 -139.88873341 209.66098208 -141 211 Z M-122 210 C-122.33 212.31 -122.66 214.62 -123 217 C-119.04 217 -115.08 217 -111 217 C-110.67 214.69 -110.34 212.38 -110 210 C-113.96 210 -117.92 210 -122 210 Z M-105 210 C-105 212.31 -105 214.62 -105 217 C-100.05 217 -95.1 217 -90 217 C-90 214.36 -90 211.72 -90 209 C-95.11791642 208.89337674 -99.92928099 209.28832014 -105 210 Z M-35 210 C-35.04241723 212.33294775 -35.04092937 214.66702567 -35 217 C-32.54276038 219.45723962 -26.60920647 218.98617404 -23.24609375 219.0625 C-20.82987635 219.0625 -18.41577669 219.04455326 -16 219 C-16.47581198 217.68628013 -16.95575149 216.37405454 -17.4375 215.0625 C-17.70433594 214.33160156 -17.97117187 213.60070312 -18.24609375 212.84765625 C-18.85386948 211.01694322 -18.85386948 211.01694322 -20 210 C-22.53049402 209.92686433 -25.03304837 209.90752473 -27.5625 209.9375 C-28.27341797 209.94201172 -28.98433594 209.94652344 -29.71679688 209.95117188 C-31.47790013 209.96299136 -33.23896036 209.98092737 -35 210 Z M-302 224.375 C-303.65657484 226.99358089 -303.65657484 226.99358089 -304 230 C-301.03 230.33 -298.06 230.66 -295 231 C-294.34 229.906875 -293.68 228.81375 -293 227.6875 C-292.62875 227.07261719 -292.2575 226.45773437 -291.875 225.82421875 C-290.78376001 223.88638074 -290.78376001 223.88638074 -291 221 C-297.49053199 220.17283732 -297.49053199 220.17283732 -302 224.375 Z M-284 222 C-285.65 224.64 -287.3 227.28 -289 230 C-285.57905758 232.28062828 -284.31812778 232.21925007 -280.3125 232.125 C-279.31863281 232.10695313 -278.32476562 232.08890625 -277.30078125 232.0703125 C-276.54152344 232.04710937 -275.78226563 232.02390625 -275 232 C-274.01 229.03 -273.02 226.06 -272 223 C-275.96 222.67 -279.92 222.34 -284 222 Z M-67 222 C-68.30055604 224.60111208 -67.93112435 226.18741322 -67.625 229.0625 C-67.53476562 229.96097656 -67.44453125 230.85945312 -67.3515625 231.78515625 C-67.22733918 233.96849829 -67.22733918 233.96849829 -66 235 C-64.31391034 235.07205511 -62.62499341 235.08386068 -60.9375 235.0625 C-60.01839844 235.05347656 -59.09929687 235.04445313 -58.15234375 235.03515625 C-57.44207031 235.02355469 -56.73179687 235.01195312 -56 235 C-56.14033111 233.02043559 -56.2874123 231.04134859 -56.4375 229.0625 C-56.51871094 227.96035156 -56.59992188 226.85820312 -56.68359375 225.72265625 C-56.70418084 223.08890097 -56.70418084 223.08890097 -58 222 C-59.51928038 221.92820036 -61.04167482 221.91607993 -62.5625 221.9375 C-63.80193359 221.95103516 -63.80193359 221.95103516 -65.06640625 221.96484375 C-66.02353516 221.98224609 -66.02353516 221.98224609 -67 222 Z M-266 223 C-267.98 227.455 -267.98 227.455 -270 232 C-268.94021067 233.28612676 -268.94021067 233.28612676 -266.49609375 233.09765625 C-265.48675781 233.08605469 -264.47742188 233.07445312 -263.4375 233.0625 C-262.42558594 233.05347656 -261.41367187 233.04445313 -260.37109375 233.03515625 C-259.58863281 233.02355469 -258.80617188 233.01195312 -258 233 C-257.319375 231.906875 -256.63875 230.81375 -255.9375 229.6875 C-255.55464844 229.07261719 -255.17179687 228.45773437 -254.77734375 227.82421875 C-253.68887926 225.82866925 -253.68887926 225.82866925 -255 223 C-258.63 223 -262.26 223 -266 223 Z M-197 223 C-197.495 224.0725 -197.99 225.145 -198.5 226.25 C-198.7784375 226.85328125 -199.056875 227.4565625 -199.34375 228.078125 C-200.21542924 230.29242836 -200.21542924 230.29242836 -200 234 C-196.37 234 -192.74 234 -189 234 C-188.505 232.55625 -188.01 231.1125 -187.5 229.625 C-187.08234375 228.40683594 -187.08234375 228.40683594 -186.65625 227.1640625 C-185.90326695 225.05790758 -185.90326695 225.05790758 -186 223 C-189.63 223 -193.26 223 -197 223 Z M-180 223 C-181.485 228.445 -181.485 228.445 -183 234 C-158.91 234 -134.82 234 -110 234 C-110.495 228.555 -110.495 228.555 -111 223 C-133.77 223 -156.54 223 -180 223 Z M-105 223 C-105.020625 224.44375 -105.04125 225.8875 -105.0625 227.375 C-105.07410156 228.18710937 -105.08570313 228.99921875 -105.09765625 229.8359375 C-105.14466334 232.04937142 -105.14466334 232.04937142 -104 234 C-99.05 234 -94.1 234 -89 234 C-89 230.37 -89 226.74 -89 223 C-94.28 223 -99.56 223 -105 223 Z M-84 223 C-83.67 226.63 -83.34 230.26 -83 234 C-79.37 234.33 -75.74 234.66 -72 235 C-72.33 231.04 -72.66 227.08 -73 223 C-76.63 223 -80.26 223 -84 223 Z M-51 223 C-51.08384078 227.27587998 -50.84728203 230.76358987 -50 235 C-46.04 235 -42.08 235 -38 235 C-38.144375 233.205625 -38.28875 231.41125 -38.4375 229.5625 C-38.51871094 228.55316406 -38.59992188 227.54382813 -38.68359375 226.50390625 C-38.73211468 224.06359221 -38.73211468 224.06359221 -40 223 C-41.85287502 222.92773498 -43.70833878 222.9161878 -45.5625 222.9375 C-46.57441406 222.94652344 -47.58632813 222.95554687 -48.62890625 222.96484375 C-49.41136719 222.97644531 -50.19382812 222.98804688 -51 223 Z M-248 224 C-249.98 228.455 -249.98 228.455 -252 233 C-247.71 233 -243.42 233 -239 233 C-238.34 230.03 -237.68 227.06 -237 224 C-240.63 224 -244.26 224 -248 224 Z M-230 224 C-232.29045014 228.81209901 -232.29045014 228.81209901 -233 234 C-230.03 234 -227.06 234 -224 234 C-223.01 230.7 -222.02 227.4 -221 224 C-223.97 224 -226.94 224 -230 224 Z M-215 224 C-215.99 227.3 -216.98 230.6 -218 234 C-214.04 234 -210.08 234 -206 234 C-205.34 230.7 -204.68 227.4 -204 224 C-207.63 224 -211.26 224 -215 224 Z M-34 224 C-33.34 227.63 -32.68 231.26 -32 235 C-24.08 235 -16.16 235 -8 235 C-9.68505156 228.93753528 -9.68505156 228.93753528 -13 224 C-16.57538425 223.36997983 -20.07169069 223.53236627 -23.6875 223.6875 C-25.16959961 223.72133789 -25.16959961 223.72133789 -26.68164062 223.75585938 C-29.12173907 223.81479895 -31.56105961 223.90448014 -34 224 Z M-187 239 C-188.32002556 241.55886504 -189.63113782 244.12167068 -190.9375 246.6875 C-191.31068359 247.40873047 -191.68386719 248.12996094 -192.06835938 248.87304688 C-193.93965239 252.56505742 -195.48269556 255.83693096 -196 260 C-180.69040148 260.85285372 -165.42553466 261.15809524 -150.09301758 261.13037109 C-146.54178678 261.12496849 -142.99068034 261.13037771 -139.43945312 261.13671875 C-127.9200778 261.13972933 -116.4779764 261.04811891 -105 260 C-105.13422363 259.24259521 -105.26844727 258.48519043 -105.40673828 257.70483398 C-105.72688802 255.89827474 -106.04703776 254.09171549 -106.3671875 252.28515625 C-106.88282619 249.60829121 -107.44472123 246.95447607 -108.03955078 244.29467773 C-108.21946564 243.48900864 -108.39938049 242.68333954 -108.58474731 241.85325623 C-108.7217807 241.24168167 -108.85881409 240.63010712 -109 240 C-126.13397414 239.01835454 -143.21625238 238.87891131 -160.375 238.9375 C-162.97265538 238.94253107 -165.57031171 238.9470911 -168.16796875 238.95117188 C-174.44533387 238.96203626 -180.72266225 238.9786439 -187 239 Z M-357 270 C-356.34 274.62 -355.68 279.24 -355 284 C-341.29048765 286.24665488 -327.73098139 286.44924883 -313.85839844 286.61889648 C-311.89009463 286.6471634 -309.92179087 286.67543568 -307.95349209 286.70405085 C-275.66426184 287.16613136 -243.37142639 287.13102898 -211.07967569 287.10353968 C-202.20793142 287.09618497 -193.33618862 287.09487052 -184.46444175 287.09374207 C-168.65825791 287.09158256 -152.8520794 287.08500924 -137.04589844 287.07543945 C-121.7412112 287.06618324 -106.43652543 287.05914324 -91.13183594 287.05493164 C-90.17981278 287.05466892 -89.22778962 287.05440619 -88.24691728 287.05413551 C-83.46831627 287.05282996 -78.68971524 287.05156637 -73.91111422 287.05032361 C-34.60740573 287.04004815 4.69629669 287.02244028 44 287 C44 281.72 44 276.44 44 271 C29.54167162 270.9695407 15.08335545 270.94950319 0.625 270.9375 C-0.49243843 270.9364967 -1.60987686 270.93549339 -2.76117706 270.93445969 C-27.61299797 270.91370719 -52.46270075 270.91126307 -77.3125 271.2578125 C-78.2081901 271.2701335 -79.1038802 271.28245449 -80.02671242 271.29514885 C-83.68515053 271.34553411 -87.34358204 271.39638572 -91.0020113 271.44740963 C-139.93875076 272.12727475 -188.86252031 271.94694545 -237.8015213 271.65937424 C-241.71134368 271.63640672 -245.62116872 271.61405495 -249.53099823 271.59233475 C-260.78470339 271.52980571 -272.03835811 271.46228571 -283.29198265 271.38656425 C-286.75020809 271.36332383 -290.20843722 271.34161005 -293.66668129 271.32133675 C-314.79379165 271.1954953 -335.88700313 270.79727739 -357 270 Z " fill="#000000" transform="translate(407,103)"/>
<path d="M0 0 C0.65046453 0.00370133 1.30092905 0.00740267 1.97110462 0.01121616 C9.24823473 0.06912956 16.52217371 0.27404232 23.7961216 0.48681831 C27.98573878 0.60848101 32.17559901 0.72104098 36.36547852 0.83325195 C37.21149659 0.85591031 38.05751467 0.87856867 38.92916965 0.90191364 C51.58323127 1.23609123 64.2390495 1.45126011 76.89623642 1.62357712 C79.17315898 1.65481047 81.45005781 1.68750984 83.72695923 1.72024536 C107.385018 2.05323599 131.04117673 2.11800093 154.70114827 2.08661866 C156.91717396 2.08374727 159.13319979 2.08121643 161.349226 2.07878685 C175.44091275 2.06311598 189.53253769 2.04269364 203.62413955 1.98977685 C209.28150956 1.96885058 214.93887219 1.95450297 220.59627271 1.94494891 C223.91363678 1.9389595 227.23087295 1.92805087 230.5481987 1.91050339 C234.18500611 1.89148072 237.82164593 1.88449585 241.45849609 1.88037109 C242.53674558 1.87161233 243.61499506 1.86285357 244.72591877 1.85382938 C245.70265143 1.85513072 246.6793841 1.85643206 247.68571472 1.85777283 C248.53515246 1.85463042 249.38459021 1.85148802 250.25976849 1.84825039 C252.30541992 2.09155273 252.30541992 2.09155273 254.30541992 4.09155273 C254.5571022 6.45323086 254.5571022 6.45323086 254.55938721 9.47496033 C254.56502686 10.61769913 254.5706665 11.76043793 254.57647705 12.93780518 C254.57040436 14.82750031 254.57040436 14.82750031 254.56420898 16.75537109 C254.56691798 18.09068493 254.57047839 19.42599727 254.5748291 20.76130676 C254.58396722 24.39354241 254.58040281 28.02566478 254.57407093 31.65790248 C254.56901722 35.45484526 254.57370072 39.25177816 254.57684326 43.04872131 C254.58048519 49.42686713 254.57567834 55.80496667 254.56616211 62.18310547 C254.55528177 69.56079283 254.55879914 76.93836962 254.56981492 84.31605428 C254.57888691 90.64476117 254.58017337 96.97343473 254.57493758 103.30214602 C254.57181679 107.08439831 254.57141142 110.86659861 254.57801056 114.64884758 C254.58378196 118.20535781 254.57979098 121.76172535 254.56822205 125.31822014 C254.56430952 127.24873533 254.57026321 129.17926257 254.57647705 131.10977173 C254.5708374 132.25533035 254.56519775 133.40088898 254.55938721 134.5811615 C254.55825613 136.07748312 254.55825613 136.07748312 254.5571022 137.60403347 C254.30541992 140.09155273 254.30541992 140.09155273 252.30541992 143.09155273 C249.5250421 143.50343325 246.94827773 143.71782229 244.15200806 143.81391907 C243.30831531 143.85352875 242.46462257 143.89313843 241.59536338 143.9339484 C238.77860548 144.06037234 235.9615725 144.16354891 233.14379883 144.26464844 C231.14911284 144.34512736 229.15443123 144.42571509 227.1597538 144.50640583 C206.12693071 145.31282354 185.0963208 145.36989969 164.05103636 145.32727218 C158.61977016 145.31824661 153.18850484 145.32025354 147.75723267 145.32063293 C138.68001829 145.31970857 129.60283821 145.31118377 120.52563477 145.29736328 C110.08681401 145.28152679 99.64803026 145.27637015 89.20919836 145.27709883 C77.96854473 145.27777695 66.72790497 145.27083691 55.48725557 145.26165223 C52.29246116 145.25953875 49.09766904 145.2588136 45.90287399 145.25841331 C40.8741486 145.25739935 35.84545348 145.25121821 30.81673813 145.24124718 C28.98917324 145.23836214 27.16160486 145.23708853 25.33403778 145.23767471 C16.28095492 145.23947788 7.24318085 145.1307207 -1.80111694 144.70747375 C-2.56717746 144.67717675 -3.33323798 144.64687975 -4.12251246 144.61566466 C-9.45869363 144.32743919 -9.45869363 144.32743919 -11.69458008 142.09155273 C-16.25148406 114.75012884 -14.03337241 84.78353289 -14.36206055 57.12841797 C-14.41562864 52.68391671 -14.4783567 48.23967896 -14.54858398 43.79541016 C-14.63442879 38.36218005 -14.70563712 32.92895006 -14.76596832 27.49537849 C-14.79118401 25.44075703 -14.8215298 23.38619177 -14.85713959 21.33172417 C-14.90531741 18.48787383 -14.93464239 15.64443112 -14.95922852 12.80029297 C-14.97779404 11.95739716 -14.99635956 11.11450134 -15.01548767 10.24606323 C-15.0366339 4.51229072 -15.0366339 4.51229072 -13.31580257 2.3956089 C-9.57523714 -0.61317455 -4.57403867 -0.02888883 0 0 Z M-8.69458008 6.09155273 C-8.5862813 19.66270705 -8.4735 33.23381639 -8.35524082 46.80488777 C-8.30044409 53.10876071 -8.24710138 59.41263847 -8.19726562 65.71655273 C-8.14897394 71.81799572 -8.0966227 77.91939243 -8.04163933 84.02077866 C-8.02150465 86.33034971 -8.00275039 88.6399333 -7.98550606 90.94952774 C-7.89856512 102.47429938 -7.73114748 113.98579851 -7.23730469 125.5012207 C-7.18025659 126.89010844 -7.18025659 126.89010844 -7.12205601 128.30705452 C-7.06157031 129.58288556 -7.06157031 129.58288556 -6.99986267 130.88449097 C-6.9652188 131.62781111 -6.93057493 132.37113125 -6.89488125 133.13697624 C-6.74440553 135.30518896 -6.74440553 135.30518896 -5.69458008 138.09155273 C-0.39873538 138.97310481 4.6862894 139.23578174 10.04940796 139.2252655 C11.33427422 139.22866384 11.33427422 139.22866384 12.64509737 139.23213083 C15.50372788 139.23843957 18.36231059 139.2376434 21.22094727 139.23681641 C23.27678488 139.23981035 25.33262193 139.24321343 27.38845825 139.24699402 C32.97272903 139.25582676 38.55698448 139.25817218 44.14126158 139.2588098 C47.64468894 139.25952216 51.14811245 139.26166028 54.65153885 139.26430702 C66.91816706 139.2735669 79.18478442 139.27764221 91.45141602 139.27685547 C102.80655783 139.27625856 114.16165153 139.28673213 125.51678121 139.30259913 C135.31523621 139.31579257 145.11367575 139.32103429 154.91213953 139.32040006 C160.74089599 139.32014796 166.56960994 139.32283473 172.39835739 139.33357811 C177.90926799 139.34345631 183.42009727 139.34320766 188.9310112 139.33606148 C190.92317833 139.33503867 192.91535106 139.33723555 194.90750885 139.34342194 C212.8103538 139.39528358 230.36332934 138.17895216 248.30541992 137.09155273 C248.30541992 94.52155273 248.30541992 51.95155273 248.30541992 8.09155273 C237.1137793 8.0309668 225.92213867 7.97038086 214.39135742 7.90795898 C207.15437599 7.86730093 199.91739613 7.82647273 192.68041992 7.78491211 C181.27971333 7.71946986 169.87900626 7.65459878 158.47827148 7.59423828 C147.47011153 7.53579734 136.46197429 7.47403632 125.45385742 7.40795898 C124.09759388 7.39983964 124.09759388 7.39983964 122.71393108 7.39155626 C95.66964411 7.22794992 68.63078108 6.94150611 41.59091187 6.41859436 C24.82650346 6.10070848 8.07214264 6.03819244 -8.69458008 6.09155273 Z " fill="#000000" transform="translate(133.694580078125,124.908447265625)"/>
<path d="M0 0 C4.57627119 3.15254237 4.57627119 3.15254237 6 6 C6.6633625 11.47473873 4.75673507 14.77670465 1.8125 19.1875 C1.14516846 20.21919312 1.14516846 20.21919312 0.46435547 21.27172852 C-1.0053483 23.52727698 -2.49869802 25.76537156 -4 28 C-4.51353027 28.76634766 -5.02706055 29.53269531 -5.55615234 30.32226562 C-9.31977691 35.9171255 -13.14733032 41.46618634 -17 47 C-17.51353027 47.73927734 -18.02706055 48.47855469 -18.55615234 49.24023438 C-25.80924054 59.6637783 -33.22291723 69.95991364 -41 80 C-41.69609375 80.90878906 -42.3921875 81.81757813 -43.109375 82.75390625 C-48.96326988 89.90194731 -57.1481179 95.23288137 -66 98 C-68.3125 97.625 -68.3125 97.625 -70 97 C-69.62697826 81.67219752 -61.60874865 71.12621387 -52.74951172 59.34228516 C-49.9688386 55.6194582 -47.270433 51.83836191 -44.5625 48.0625 C-39.52717423 41.07992824 -34.44605683 34.13184509 -29.32299805 27.21337891 C-26.23601378 23.04424785 -23.17282235 18.86045276 -20.14453125 14.6484375 C-19.51345459 13.77630615 -18.88237793 12.9041748 -18.23217773 12.00561523 C-17.02059916 10.33023795 -15.81536516 8.65024871 -14.61743164 6.96508789 C-14.07078857 6.21219482 -13.52414551 5.45930176 -12.9609375 4.68359375 C-12.24623291 3.68670532 -12.24623291 3.68670532 -11.51708984 2.66967773 C-7.98558651 -1.21702186 -4.93095685 -1.40884482 0 0 Z M-14 10 C-10.23402779 13.92242209 -5.87176663 16.63251082 -1 19 C2.85650015 13.84214317 2.85650015 13.84214317 4.0625 7.6875 C2.81302303 4.52705825 2.05145116 3.48448975 -1 2 C-7.68750325 0.36527698 -10.34829253 5.15986703 -14 10 Z M-16 13 C-15.29875 13.556875 -14.5975 14.11375 -13.875 14.6875 C-10.88655739 17.09124732 -7.94059762 19.53810432 -5 22 C-4.34 21.67 -3.68 21.34 -3 21 C-4.21807138 19.84237881 -5.45001235 18.6993417 -6.6875 17.5625 C-7.37199219 16.92441406 -8.05648437 16.28632813 -8.76171875 15.62890625 C-11.22289422 13.83778902 -13.00816574 13.37201442 -16 13 Z M-19.5859375 17.5546875 C-25.0427755 24.63189661 -30.27685094 31.85899195 -35.484375 39.12109375 C-39.07028565 44.11373819 -42.71985587 49.05794359 -46.375 54 C-47.54074637 55.58435457 -48.70612588 57.16897916 -49.87109375 58.75390625 C-51.72320369 61.27355326 -53.58716681 63.78261097 -55.47265625 66.27734375 C-56.44525391 67.59412109 -56.44525391 67.59412109 -57.4375 68.9375 C-58.23994141 70.00291016 -58.23994141 70.00291016 -59.05859375 71.08984375 C-60.22085837 72.98980395 -60.22085837 72.98980395 -59.66015625 75.25390625 C-59.33337891 76.11822266 -59.33337891 76.11822266 -59 77 C-57.02 77 -55.04 77 -53 77 C-53 78.65 -53 80.3 -53 82 C-49.70470305 82.88598757 -49.70470305 82.88598757 -46 83 C-43.60976506 81.33132717 -43.60976506 81.33132717 -41.8125 78.625 C-41.049375 77.60535156 -40.28625 76.58570313 -39.5 75.53515625 C-38.6644954 74.35830932 -37.83126295 73.17984683 -37 72 C-36.08376102 70.72755651 -35.16707795 69.45543271 -34.25 68.18359375 C-31.69226052 64.60990757 -29.17641904 61.00833905 -26.66943359 57.39892578 C-24.8977672 54.85309454 -23.11599665 52.31457017 -21.33203125 49.77734375 C-20.09626095 48.01829465 -18.86058217 46.25918125 -17.625 44.5 C-17.05434814 43.68797119 -16.48369629 42.87594238 -15.89575195 42.03930664 C-12.18614657 36.74320336 -8.56324862 31.39563835 -5 26 C-6.55213411 22.67907527 -7.96722559 20.94036995 -10.9375 18.75 C-11.62714844 18.22921875 -12.31679688 17.7084375 -13.02734375 17.171875 C-15.74100242 15.55980054 -17.25833512 15.2729492 -19.5859375 17.5546875 Z M-62 76 C-64.53309233 80.64203897 -66.46515599 84.65155992 -67 90 C-64.525 91.98 -64.525 91.98 -62 94 C-60.20112771 93.09755571 -58.41109185 92.17748214 -56.625 91.25 C-55.62726563 90.73953125 -54.62953125 90.2290625 -53.6015625 89.703125 C-50.93420875 87.95692945 -50.06347095 86.94696769 -49 84 C-51.475 83.505 -51.475 83.505 -54 83 C-54.33 81.68 -54.66 80.36 -55 79 C-56.175625 78.814375 -56.175625 78.814375 -57.375 78.625 C-60 78 -60 78 -62 76 Z " fill="#000000" transform="translate(282,152)"/>
</svg>
